G04 #@! TF.FileFunction,Legend,Top*
%FSLAX46Y46*%
G04 Gerber Fmt 4.6, Leading zero omitted, Abs format (unit mm)*
G04 Created by KiCad (PCBNEW 4.0.2+dfsg1-stable) date Mo 06 Jun 2016 00:17:18 CEST*
%MOMM*%
G01*
G04 APERTURE LIST*
%ADD10C,0.100000*%
%ADD11C,0.200000*%
%ADD12C,0.150000*%
G04 APERTURE END LIST*
D10*
D11*
X50750000Y-18500000D02*
X50750000Y-60500000D01*
X42250000Y-60500000D02*
X42250000Y-18500000D01*
X33750000Y-18500000D02*
X33750000Y-60500000D01*
X25250000Y-60500000D02*
X25250000Y-18500000D01*
X59000000Y-52250000D02*
X17000000Y-52250000D01*
X17000000Y-43750000D02*
X59000000Y-43750000D01*
X59000000Y-35250000D02*
X17000000Y-35250000D01*
X17000000Y-26750000D02*
X59000000Y-26750000D01*
D12*
X56250000Y-53325000D02*
X57250000Y-53325000D01*
X57250000Y-54675000D02*
X56250000Y-54675000D01*
X47750000Y-53325000D02*
X48750000Y-53325000D01*
X48750000Y-54675000D02*
X47750000Y-54675000D01*
X39250000Y-53325000D02*
X40250000Y-53325000D01*
X40250000Y-54675000D02*
X39250000Y-54675000D01*
X30750000Y-53325000D02*
X31750000Y-53325000D01*
X31750000Y-54675000D02*
X30750000Y-54675000D01*
X22250000Y-53325000D02*
X23250000Y-53325000D01*
X23250000Y-54675000D02*
X22250000Y-54675000D01*
X56250000Y-44825000D02*
X57250000Y-44825000D01*
X57250000Y-46175000D02*
X56250000Y-46175000D01*
X47750000Y-44825000D02*
X48750000Y-44825000D01*
X48750000Y-46175000D02*
X47750000Y-46175000D01*
X39250000Y-44825000D02*
X40250000Y-44825000D01*
X40250000Y-46175000D02*
X39250000Y-46175000D01*
X30750000Y-44825000D02*
X31750000Y-44825000D01*
X31750000Y-46175000D02*
X30750000Y-46175000D01*
X22250000Y-44825000D02*
X23250000Y-44825000D01*
X23250000Y-46175000D02*
X22250000Y-46175000D01*
X56250000Y-36325000D02*
X57250000Y-36325000D01*
X57250000Y-37675000D02*
X56250000Y-37675000D01*
X47750000Y-36325000D02*
X48750000Y-36325000D01*
X48750000Y-37675000D02*
X47750000Y-37675000D01*
X39250000Y-36325000D02*
X40250000Y-36325000D01*
X40250000Y-37675000D02*
X39250000Y-37675000D01*
X30750000Y-36325000D02*
X31750000Y-36325000D01*
X31750000Y-37675000D02*
X30750000Y-37675000D01*
X22250000Y-36325000D02*
X23250000Y-36325000D01*
X23250000Y-37675000D02*
X22250000Y-37675000D01*
X56250000Y-27825000D02*
X57250000Y-27825000D01*
X57250000Y-29175000D02*
X56250000Y-29175000D01*
X47750000Y-27825000D02*
X48750000Y-27825000D01*
X48750000Y-29175000D02*
X47750000Y-29175000D01*
X39250000Y-27825000D02*
X40250000Y-27825000D01*
X40250000Y-29175000D02*
X39250000Y-29175000D01*
X30750000Y-27825000D02*
X31750000Y-27825000D01*
X31750000Y-29175000D02*
X30750000Y-29175000D01*
X22250000Y-27825000D02*
X23250000Y-27825000D01*
X23250000Y-29175000D02*
X22250000Y-29175000D01*
X56250000Y-19325000D02*
X57250000Y-19325000D01*
X57250000Y-20675000D02*
X56250000Y-20675000D01*
X47750000Y-19325000D02*
X48750000Y-19325000D01*
X48750000Y-20675000D02*
X47750000Y-20675000D01*
X39250000Y-19325000D02*
X40250000Y-19325000D01*
X40250000Y-20675000D02*
X39250000Y-20675000D01*
X30750000Y-19325000D02*
X31750000Y-19325000D01*
X31750000Y-20675000D02*
X30750000Y-20675000D01*
X53850000Y-54600000D02*
X53150000Y-54600000D01*
X53150000Y-53400000D02*
X53850000Y-53400000D01*
X45350000Y-54600000D02*
X44650000Y-54600000D01*
X44650000Y-53400000D02*
X45350000Y-53400000D01*
X36850000Y-54600000D02*
X36150000Y-54600000D01*
X36150000Y-53400000D02*
X36850000Y-53400000D01*
X28350000Y-54600000D02*
X27650000Y-54600000D01*
X27650000Y-53400000D02*
X28350000Y-53400000D01*
X19850000Y-54600000D02*
X19150000Y-54600000D01*
X19150000Y-53400000D02*
X19850000Y-53400000D01*
X53850000Y-46100000D02*
X53150000Y-46100000D01*
X53150000Y-44900000D02*
X53850000Y-44900000D01*
X45350000Y-46100000D02*
X44650000Y-46100000D01*
X44650000Y-44900000D02*
X45350000Y-44900000D01*
X36850000Y-46100000D02*
X36150000Y-46100000D01*
X36150000Y-44900000D02*
X36850000Y-44900000D01*
X28350000Y-46100000D02*
X27650000Y-46100000D01*
X27650000Y-44900000D02*
X28350000Y-44900000D01*
X19850000Y-46100000D02*
X19150000Y-46100000D01*
X19150000Y-44900000D02*
X19850000Y-44900000D01*
X53850000Y-37600000D02*
X53150000Y-37600000D01*
X53150000Y-36400000D02*
X53850000Y-36400000D01*
X45350000Y-37600000D02*
X44650000Y-37600000D01*
X44650000Y-36400000D02*
X45350000Y-36400000D01*
X36850000Y-37600000D02*
X36150000Y-37600000D01*
X36150000Y-36400000D02*
X36850000Y-36400000D01*
X28350000Y-37600000D02*
X27650000Y-37600000D01*
X27650000Y-36400000D02*
X28350000Y-36400000D01*
X19850000Y-37600000D02*
X19150000Y-37600000D01*
X19150000Y-36400000D02*
X19850000Y-36400000D01*
X53850000Y-29100000D02*
X53150000Y-29100000D01*
X53150000Y-27900000D02*
X53850000Y-27900000D01*
X45350000Y-29100000D02*
X44650000Y-29100000D01*
X44650000Y-27900000D02*
X45350000Y-27900000D01*
X36850000Y-29100000D02*
X36150000Y-29100000D01*
X36150000Y-27900000D02*
X36850000Y-27900000D01*
X28350000Y-29100000D02*
X27650000Y-29100000D01*
X27650000Y-27900000D02*
X28350000Y-27900000D01*
X19850000Y-29100000D02*
X19150000Y-29100000D01*
X19150000Y-27900000D02*
X19850000Y-27900000D01*
X53850000Y-20600000D02*
X53150000Y-20600000D01*
X53150000Y-19400000D02*
X53850000Y-19400000D01*
X45350000Y-20600000D02*
X44650000Y-20600000D01*
X44650000Y-19400000D02*
X45350000Y-19400000D01*
X36850000Y-20600000D02*
X36150000Y-20600000D01*
X36150000Y-19400000D02*
X36850000Y-19400000D01*
X28350000Y-20600000D02*
X27650000Y-20600000D01*
X27650000Y-19400000D02*
X28350000Y-19400000D01*
X58550000Y-60000000D02*
X58550000Y-59500000D01*
X57550000Y-60000000D02*
X58550000Y-60000000D01*
X57550000Y-60000000D02*
X57550000Y-60000000D01*
X52550000Y-60000000D02*
X57550000Y-60000000D01*
X52550000Y-55000000D02*
X57550000Y-55000000D01*
X50050000Y-60000000D02*
X50050000Y-59500000D01*
X49050000Y-60000000D02*
X50050000Y-60000000D01*
X49050000Y-60000000D02*
X49050000Y-60000000D01*
X44050000Y-60000000D02*
X49050000Y-60000000D01*
X44050000Y-55000000D02*
X49050000Y-55000000D01*
X41550000Y-60000000D02*
X41550000Y-59500000D01*
X40550000Y-60000000D02*
X41550000Y-60000000D01*
X40550000Y-60000000D02*
X40550000Y-60000000D01*
X35550000Y-60000000D02*
X40550000Y-60000000D01*
X35550000Y-55000000D02*
X40550000Y-55000000D01*
X33050000Y-60000000D02*
X33050000Y-59500000D01*
X32050000Y-60000000D02*
X33050000Y-60000000D01*
X32050000Y-60000000D02*
X32050000Y-60000000D01*
X27050000Y-60000000D02*
X32050000Y-60000000D01*
X27050000Y-55000000D02*
X32050000Y-55000000D01*
X24550000Y-60000000D02*
X24550000Y-59500000D01*
X23550000Y-60000000D02*
X24550000Y-60000000D01*
X23550000Y-60000000D02*
X23550000Y-60000000D01*
X18550000Y-60000000D02*
X23550000Y-60000000D01*
X18550000Y-55000000D02*
X23550000Y-55000000D01*
X58550000Y-51500000D02*
X58550000Y-51000000D01*
X57550000Y-51500000D02*
X58550000Y-51500000D01*
X57550000Y-51500000D02*
X57550000Y-51500000D01*
X52550000Y-51500000D02*
X57550000Y-51500000D01*
X52550000Y-46500000D02*
X57550000Y-46500000D01*
X50050000Y-51500000D02*
X50050000Y-51000000D01*
X49050000Y-51500000D02*
X50050000Y-51500000D01*
X49050000Y-51500000D02*
X49050000Y-51500000D01*
X44050000Y-51500000D02*
X49050000Y-51500000D01*
X44050000Y-46500000D02*
X49050000Y-46500000D01*
X41550000Y-51500000D02*
X41550000Y-51000000D01*
X40550000Y-51500000D02*
X41550000Y-51500000D01*
X40550000Y-51500000D02*
X40550000Y-51500000D01*
X35550000Y-51500000D02*
X40550000Y-51500000D01*
X35550000Y-46500000D02*
X40550000Y-46500000D01*
X33050000Y-51500000D02*
X33050000Y-51000000D01*
X32050000Y-51500000D02*
X33050000Y-51500000D01*
X32050000Y-51500000D02*
X32050000Y-51500000D01*
X27050000Y-51500000D02*
X32050000Y-51500000D01*
X27050000Y-46500000D02*
X32050000Y-46500000D01*
X24550000Y-51500000D02*
X24550000Y-51000000D01*
X23550000Y-51500000D02*
X24550000Y-51500000D01*
X23550000Y-51500000D02*
X23550000Y-51500000D01*
X18550000Y-51500000D02*
X23550000Y-51500000D01*
X18550000Y-46500000D02*
X23550000Y-46500000D01*
X58550000Y-43000000D02*
X58550000Y-42500000D01*
X57550000Y-43000000D02*
X58550000Y-43000000D01*
X57550000Y-43000000D02*
X57550000Y-43000000D01*
X52550000Y-43000000D02*
X57550000Y-43000000D01*
X52550000Y-38000000D02*
X57550000Y-38000000D01*
X50050000Y-43000000D02*
X50050000Y-42500000D01*
X49050000Y-43000000D02*
X50050000Y-43000000D01*
X49050000Y-43000000D02*
X49050000Y-43000000D01*
X44050000Y-43000000D02*
X49050000Y-43000000D01*
X44050000Y-38000000D02*
X49050000Y-38000000D01*
X41550000Y-43000000D02*
X41550000Y-42500000D01*
X40550000Y-43000000D02*
X41550000Y-43000000D01*
X40550000Y-43000000D02*
X40550000Y-43000000D01*
X35550000Y-43000000D02*
X40550000Y-43000000D01*
X35550000Y-38000000D02*
X40550000Y-38000000D01*
X33050000Y-43000000D02*
X33050000Y-42500000D01*
X32050000Y-43000000D02*
X33050000Y-43000000D01*
X32050000Y-43000000D02*
X32050000Y-43000000D01*
X27050000Y-43000000D02*
X32050000Y-43000000D01*
X27050000Y-38000000D02*
X32050000Y-38000000D01*
X24550000Y-43000000D02*
X24550000Y-42500000D01*
X23550000Y-43000000D02*
X24550000Y-43000000D01*
X23550000Y-43000000D02*
X23550000Y-43000000D01*
X18550000Y-43000000D02*
X23550000Y-43000000D01*
X18550000Y-38000000D02*
X23550000Y-38000000D01*
X58550000Y-34500000D02*
X58550000Y-34000000D01*
X57550000Y-34500000D02*
X58550000Y-34500000D01*
X57550000Y-34500000D02*
X57550000Y-34500000D01*
X52550000Y-34500000D02*
X57550000Y-34500000D01*
X52550000Y-29500000D02*
X57550000Y-29500000D01*
X50050000Y-34500000D02*
X50050000Y-34000000D01*
X49050000Y-34500000D02*
X50050000Y-34500000D01*
X49050000Y-34500000D02*
X49050000Y-34500000D01*
X44050000Y-34500000D02*
X49050000Y-34500000D01*
X44050000Y-29500000D02*
X49050000Y-29500000D01*
X41550000Y-34500000D02*
X41550000Y-34000000D01*
X40550000Y-34500000D02*
X41550000Y-34500000D01*
X40550000Y-34500000D02*
X40550000Y-34500000D01*
X35550000Y-34500000D02*
X40550000Y-34500000D01*
X35550000Y-29500000D02*
X40550000Y-29500000D01*
X33050000Y-34500000D02*
X33050000Y-34000000D01*
X32050000Y-34500000D02*
X33050000Y-34500000D01*
X32050000Y-34500000D02*
X32050000Y-34500000D01*
X27050000Y-34500000D02*
X32050000Y-34500000D01*
X27050000Y-29500000D02*
X32050000Y-29500000D01*
X24550000Y-34500000D02*
X24550000Y-34000000D01*
X23550000Y-34500000D02*
X24550000Y-34500000D01*
X23550000Y-34500000D02*
X23550000Y-34500000D01*
X18550000Y-34500000D02*
X23550000Y-34500000D01*
X18550000Y-29500000D02*
X23550000Y-29500000D01*
X58550000Y-26000000D02*
X58550000Y-25500000D01*
X57550000Y-26000000D02*
X58550000Y-26000000D01*
X57550000Y-26000000D02*
X57550000Y-26000000D01*
X52550000Y-26000000D02*
X57550000Y-26000000D01*
X52550000Y-21000000D02*
X57550000Y-21000000D01*
X50050000Y-26000000D02*
X50050000Y-25500000D01*
X49050000Y-26000000D02*
X50050000Y-26000000D01*
X49050000Y-26000000D02*
X49050000Y-26000000D01*
X44050000Y-26000000D02*
X49050000Y-26000000D01*
X44050000Y-21000000D02*
X49050000Y-21000000D01*
X41550000Y-26000000D02*
X41550000Y-25500000D01*
X40550000Y-26000000D02*
X41550000Y-26000000D01*
X40550000Y-26000000D02*
X40550000Y-26000000D01*
X35550000Y-26000000D02*
X40550000Y-26000000D01*
X35550000Y-21000000D02*
X40550000Y-21000000D01*
X33050000Y-26000000D02*
X33050000Y-25500000D01*
X32050000Y-26000000D02*
X33050000Y-26000000D01*
X32050000Y-26000000D02*
X32050000Y-26000000D01*
X27050000Y-26000000D02*
X32050000Y-26000000D01*
X27050000Y-21000000D02*
X32050000Y-21000000D01*
X19850000Y-20600000D02*
X19150000Y-20600000D01*
X19150000Y-19400000D02*
X19850000Y-19400000D01*
X24550000Y-26000000D02*
X24550000Y-25500000D01*
X23550000Y-26000000D02*
X24550000Y-26000000D01*
X23550000Y-26000000D02*
X23550000Y-26000000D01*
X18550000Y-26000000D02*
X23550000Y-26000000D01*
X18550000Y-21000000D02*
X23550000Y-21000000D01*
X22250000Y-19325000D02*
X23250000Y-19325000D01*
X23250000Y-20675000D02*
X22250000Y-20675000D01*
M02*
