G04 #@! TF.FileFunction,Legend,Bot*
%FSLAX46Y46*%
G04 Gerber Fmt 4.6, Leading zero omitted, Abs format (unit mm)*
G04 Created by KiCad (PCBNEW 4.0.2+dfsg1-stable) date Mo 06 Jun 2016 00:17:18 CEST*
%MOMM*%
G01*
G04 APERTURE LIST*
%ADD10C,0.100000*%
%ADD11C,0.200000*%
%ADD12C,0.250000*%
%ADD13C,0.300000*%
G04 APERTURE END LIST*
D10*
D11*
X25250000Y-18500000D02*
X25250000Y-60500000D01*
X33750000Y-60500000D02*
X33750000Y-18500000D01*
X42250000Y-18500000D02*
X42250000Y-60500000D01*
X50750000Y-60500000D02*
X50750000Y-18500000D01*
X17000000Y-52250000D02*
X59000000Y-52250000D01*
X59000000Y-43750000D02*
X17000000Y-43750000D01*
X17000000Y-35250000D02*
X59000000Y-35250000D01*
X17000000Y-26750000D02*
X59000000Y-26750000D01*
X56000000Y-54000000D02*
X56500000Y-54000000D01*
X47500000Y-54000000D02*
X48000000Y-54000000D01*
X39000000Y-54000000D02*
X39500000Y-54000000D01*
X30500000Y-54000000D02*
X31000000Y-54000000D01*
X22000000Y-54000000D02*
X22500000Y-54000000D01*
X56000000Y-45500000D02*
X56500000Y-45500000D01*
X47500000Y-45500000D02*
X48000000Y-45500000D01*
X39000000Y-45500000D02*
X39500000Y-45500000D01*
X30500000Y-45500000D02*
X31000000Y-45500000D01*
X22000000Y-45500000D02*
X22500000Y-45500000D01*
X56000000Y-37000000D02*
X56500000Y-37000000D01*
X47500000Y-37000000D02*
X48000000Y-37000000D01*
X39000000Y-37000000D02*
X39500000Y-37000000D01*
X30500000Y-37000000D02*
X31000000Y-37000000D01*
X22000000Y-37000000D02*
X22500000Y-37000000D01*
X56000000Y-28500000D02*
X56500000Y-28500000D01*
X47500000Y-28500000D02*
X48000000Y-28500000D01*
X39000000Y-28500000D02*
X39500000Y-28500000D01*
X30500000Y-28500000D02*
X31000000Y-28500000D01*
X22000000Y-28500000D02*
X22500000Y-28500000D01*
X56000000Y-20000000D02*
X56500000Y-20000000D01*
X47500000Y-20000000D02*
X48000000Y-20000000D01*
X39000000Y-20000000D02*
X39500000Y-20000000D01*
X30500000Y-20000000D02*
X31000000Y-20000000D01*
X53500000Y-54000000D02*
X54000000Y-54000000D01*
X45000000Y-54000000D02*
X45500000Y-54000000D01*
X36500000Y-54000000D02*
X37000000Y-54000000D01*
X28000000Y-54000000D02*
X28500000Y-54000000D01*
X19500000Y-54000000D02*
X20000000Y-54000000D01*
X53500000Y-45500000D02*
X54000000Y-45500000D01*
X45000000Y-45500000D02*
X45500000Y-45500000D01*
X36500000Y-45500000D02*
X37000000Y-45500000D01*
X28000000Y-45500000D02*
X28500000Y-45500000D01*
X19500000Y-45500000D02*
X20000000Y-45500000D01*
X53500000Y-37000000D02*
X54000000Y-37000000D01*
X45000000Y-37000000D02*
X45500000Y-37000000D01*
X36500000Y-37000000D02*
X37000000Y-37000000D01*
X28000000Y-37000000D02*
X28500000Y-37000000D01*
X19500000Y-37000000D02*
X20000000Y-37000000D01*
X53500000Y-28500000D02*
X54000000Y-28500000D01*
X45000000Y-28500000D02*
X45500000Y-28500000D01*
X36500000Y-28500000D02*
X37000000Y-28500000D01*
X28000000Y-28500000D02*
X28500000Y-28500000D01*
X19500000Y-28500000D02*
X20000000Y-28500000D01*
X53500000Y-20000000D02*
X54000000Y-20000000D01*
X45000000Y-20000000D02*
X45500000Y-20000000D01*
X36500000Y-20000000D02*
X37000000Y-20000000D01*
X28000000Y-20000000D02*
X28500000Y-20000000D01*
D12*
X55761904Y-58500000D02*
X55857142Y-58452381D01*
X55999999Y-58452381D01*
X56142857Y-58500000D01*
X56238095Y-58595238D01*
X56285714Y-58690476D01*
X56333333Y-58880952D01*
X56333333Y-59023810D01*
X56285714Y-59214286D01*
X56238095Y-59309524D01*
X56142857Y-59404762D01*
X55999999Y-59452381D01*
X55904761Y-59452381D01*
X55761904Y-59404762D01*
X55714285Y-59357143D01*
X55714285Y-59023810D01*
X55904761Y-59023810D01*
X55285714Y-59452381D02*
X55285714Y-58452381D01*
X54714285Y-59452381D01*
X54714285Y-58452381D01*
X54238095Y-59452381D02*
X54238095Y-58452381D01*
X54000000Y-58452381D01*
X53857142Y-58500000D01*
X53761904Y-58595238D01*
X53714285Y-58690476D01*
X53666666Y-58880952D01*
X53666666Y-59023810D01*
X53714285Y-59214286D01*
X53761904Y-59309524D01*
X53857142Y-59404762D01*
X54000000Y-59452381D01*
X54238095Y-59452381D01*
X47261904Y-58500000D02*
X47357142Y-58452381D01*
X47499999Y-58452381D01*
X47642857Y-58500000D01*
X47738095Y-58595238D01*
X47785714Y-58690476D01*
X47833333Y-58880952D01*
X47833333Y-59023810D01*
X47785714Y-59214286D01*
X47738095Y-59309524D01*
X47642857Y-59404762D01*
X47499999Y-59452381D01*
X47404761Y-59452381D01*
X47261904Y-59404762D01*
X47214285Y-59357143D01*
X47214285Y-59023810D01*
X47404761Y-59023810D01*
X46785714Y-59452381D02*
X46785714Y-58452381D01*
X46214285Y-59452381D01*
X46214285Y-58452381D01*
X45738095Y-59452381D02*
X45738095Y-58452381D01*
X45500000Y-58452381D01*
X45357142Y-58500000D01*
X45261904Y-58595238D01*
X45214285Y-58690476D01*
X45166666Y-58880952D01*
X45166666Y-59023810D01*
X45214285Y-59214286D01*
X45261904Y-59309524D01*
X45357142Y-59404762D01*
X45500000Y-59452381D01*
X45738095Y-59452381D01*
X38761904Y-58500000D02*
X38857142Y-58452381D01*
X38999999Y-58452381D01*
X39142857Y-58500000D01*
X39238095Y-58595238D01*
X39285714Y-58690476D01*
X39333333Y-58880952D01*
X39333333Y-59023810D01*
X39285714Y-59214286D01*
X39238095Y-59309524D01*
X39142857Y-59404762D01*
X38999999Y-59452381D01*
X38904761Y-59452381D01*
X38761904Y-59404762D01*
X38714285Y-59357143D01*
X38714285Y-59023810D01*
X38904761Y-59023810D01*
X38285714Y-59452381D02*
X38285714Y-58452381D01*
X37714285Y-59452381D01*
X37714285Y-58452381D01*
X37238095Y-59452381D02*
X37238095Y-58452381D01*
X37000000Y-58452381D01*
X36857142Y-58500000D01*
X36761904Y-58595238D01*
X36714285Y-58690476D01*
X36666666Y-58880952D01*
X36666666Y-59023810D01*
X36714285Y-59214286D01*
X36761904Y-59309524D01*
X36857142Y-59404762D01*
X37000000Y-59452381D01*
X37238095Y-59452381D01*
X30261904Y-58500000D02*
X30357142Y-58452381D01*
X30499999Y-58452381D01*
X30642857Y-58500000D01*
X30738095Y-58595238D01*
X30785714Y-58690476D01*
X30833333Y-58880952D01*
X30833333Y-59023810D01*
X30785714Y-59214286D01*
X30738095Y-59309524D01*
X30642857Y-59404762D01*
X30499999Y-59452381D01*
X30404761Y-59452381D01*
X30261904Y-59404762D01*
X30214285Y-59357143D01*
X30214285Y-59023810D01*
X30404761Y-59023810D01*
X29785714Y-59452381D02*
X29785714Y-58452381D01*
X29214285Y-59452381D01*
X29214285Y-58452381D01*
X28738095Y-59452381D02*
X28738095Y-58452381D01*
X28500000Y-58452381D01*
X28357142Y-58500000D01*
X28261904Y-58595238D01*
X28214285Y-58690476D01*
X28166666Y-58880952D01*
X28166666Y-59023810D01*
X28214285Y-59214286D01*
X28261904Y-59309524D01*
X28357142Y-59404762D01*
X28500000Y-59452381D01*
X28738095Y-59452381D01*
X21761904Y-58500000D02*
X21857142Y-58452381D01*
X21999999Y-58452381D01*
X22142857Y-58500000D01*
X22238095Y-58595238D01*
X22285714Y-58690476D01*
X22333333Y-58880952D01*
X22333333Y-59023810D01*
X22285714Y-59214286D01*
X22238095Y-59309524D01*
X22142857Y-59404762D01*
X21999999Y-59452381D01*
X21904761Y-59452381D01*
X21761904Y-59404762D01*
X21714285Y-59357143D01*
X21714285Y-59023810D01*
X21904761Y-59023810D01*
X21285714Y-59452381D02*
X21285714Y-58452381D01*
X20714285Y-59452381D01*
X20714285Y-58452381D01*
X20238095Y-59452381D02*
X20238095Y-58452381D01*
X20000000Y-58452381D01*
X19857142Y-58500000D01*
X19761904Y-58595238D01*
X19714285Y-58690476D01*
X19666666Y-58880952D01*
X19666666Y-59023810D01*
X19714285Y-59214286D01*
X19761904Y-59309524D01*
X19857142Y-59404762D01*
X20000000Y-59452381D01*
X20238095Y-59452381D01*
X55761904Y-50000000D02*
X55857142Y-49952381D01*
X55999999Y-49952381D01*
X56142857Y-50000000D01*
X56238095Y-50095238D01*
X56285714Y-50190476D01*
X56333333Y-50380952D01*
X56333333Y-50523810D01*
X56285714Y-50714286D01*
X56238095Y-50809524D01*
X56142857Y-50904762D01*
X55999999Y-50952381D01*
X55904761Y-50952381D01*
X55761904Y-50904762D01*
X55714285Y-50857143D01*
X55714285Y-50523810D01*
X55904761Y-50523810D01*
X55285714Y-50952381D02*
X55285714Y-49952381D01*
X54714285Y-50952381D01*
X54714285Y-49952381D01*
X54238095Y-50952381D02*
X54238095Y-49952381D01*
X54000000Y-49952381D01*
X53857142Y-50000000D01*
X53761904Y-50095238D01*
X53714285Y-50190476D01*
X53666666Y-50380952D01*
X53666666Y-50523810D01*
X53714285Y-50714286D01*
X53761904Y-50809524D01*
X53857142Y-50904762D01*
X54000000Y-50952381D01*
X54238095Y-50952381D01*
X47261904Y-50000000D02*
X47357142Y-49952381D01*
X47499999Y-49952381D01*
X47642857Y-50000000D01*
X47738095Y-50095238D01*
X47785714Y-50190476D01*
X47833333Y-50380952D01*
X47833333Y-50523810D01*
X47785714Y-50714286D01*
X47738095Y-50809524D01*
X47642857Y-50904762D01*
X47499999Y-50952381D01*
X47404761Y-50952381D01*
X47261904Y-50904762D01*
X47214285Y-50857143D01*
X47214285Y-50523810D01*
X47404761Y-50523810D01*
X46785714Y-50952381D02*
X46785714Y-49952381D01*
X46214285Y-50952381D01*
X46214285Y-49952381D01*
X45738095Y-50952381D02*
X45738095Y-49952381D01*
X45500000Y-49952381D01*
X45357142Y-50000000D01*
X45261904Y-50095238D01*
X45214285Y-50190476D01*
X45166666Y-50380952D01*
X45166666Y-50523810D01*
X45214285Y-50714286D01*
X45261904Y-50809524D01*
X45357142Y-50904762D01*
X45500000Y-50952381D01*
X45738095Y-50952381D01*
X38761904Y-50000000D02*
X38857142Y-49952381D01*
X38999999Y-49952381D01*
X39142857Y-50000000D01*
X39238095Y-50095238D01*
X39285714Y-50190476D01*
X39333333Y-50380952D01*
X39333333Y-50523810D01*
X39285714Y-50714286D01*
X39238095Y-50809524D01*
X39142857Y-50904762D01*
X38999999Y-50952381D01*
X38904761Y-50952381D01*
X38761904Y-50904762D01*
X38714285Y-50857143D01*
X38714285Y-50523810D01*
X38904761Y-50523810D01*
X38285714Y-50952381D02*
X38285714Y-49952381D01*
X37714285Y-50952381D01*
X37714285Y-49952381D01*
X37238095Y-50952381D02*
X37238095Y-49952381D01*
X37000000Y-49952381D01*
X36857142Y-50000000D01*
X36761904Y-50095238D01*
X36714285Y-50190476D01*
X36666666Y-50380952D01*
X36666666Y-50523810D01*
X36714285Y-50714286D01*
X36761904Y-50809524D01*
X36857142Y-50904762D01*
X37000000Y-50952381D01*
X37238095Y-50952381D01*
X30261904Y-50000000D02*
X30357142Y-49952381D01*
X30499999Y-49952381D01*
X30642857Y-50000000D01*
X30738095Y-50095238D01*
X30785714Y-50190476D01*
X30833333Y-50380952D01*
X30833333Y-50523810D01*
X30785714Y-50714286D01*
X30738095Y-50809524D01*
X30642857Y-50904762D01*
X30499999Y-50952381D01*
X30404761Y-50952381D01*
X30261904Y-50904762D01*
X30214285Y-50857143D01*
X30214285Y-50523810D01*
X30404761Y-50523810D01*
X29785714Y-50952381D02*
X29785714Y-49952381D01*
X29214285Y-50952381D01*
X29214285Y-49952381D01*
X28738095Y-50952381D02*
X28738095Y-49952381D01*
X28500000Y-49952381D01*
X28357142Y-50000000D01*
X28261904Y-50095238D01*
X28214285Y-50190476D01*
X28166666Y-50380952D01*
X28166666Y-50523810D01*
X28214285Y-50714286D01*
X28261904Y-50809524D01*
X28357142Y-50904762D01*
X28500000Y-50952381D01*
X28738095Y-50952381D01*
X21761904Y-50000000D02*
X21857142Y-49952381D01*
X21999999Y-49952381D01*
X22142857Y-50000000D01*
X22238095Y-50095238D01*
X22285714Y-50190476D01*
X22333333Y-50380952D01*
X22333333Y-50523810D01*
X22285714Y-50714286D01*
X22238095Y-50809524D01*
X22142857Y-50904762D01*
X21999999Y-50952381D01*
X21904761Y-50952381D01*
X21761904Y-50904762D01*
X21714285Y-50857143D01*
X21714285Y-50523810D01*
X21904761Y-50523810D01*
X21285714Y-50952381D02*
X21285714Y-49952381D01*
X20714285Y-50952381D01*
X20714285Y-49952381D01*
X20238095Y-50952381D02*
X20238095Y-49952381D01*
X20000000Y-49952381D01*
X19857142Y-50000000D01*
X19761904Y-50095238D01*
X19714285Y-50190476D01*
X19666666Y-50380952D01*
X19666666Y-50523810D01*
X19714285Y-50714286D01*
X19761904Y-50809524D01*
X19857142Y-50904762D01*
X20000000Y-50952381D01*
X20238095Y-50952381D01*
X55761904Y-41500000D02*
X55857142Y-41452381D01*
X55999999Y-41452381D01*
X56142857Y-41500000D01*
X56238095Y-41595238D01*
X56285714Y-41690476D01*
X56333333Y-41880952D01*
X56333333Y-42023810D01*
X56285714Y-42214286D01*
X56238095Y-42309524D01*
X56142857Y-42404762D01*
X55999999Y-42452381D01*
X55904761Y-42452381D01*
X55761904Y-42404762D01*
X55714285Y-42357143D01*
X55714285Y-42023810D01*
X55904761Y-42023810D01*
X55285714Y-42452381D02*
X55285714Y-41452381D01*
X54714285Y-42452381D01*
X54714285Y-41452381D01*
X54238095Y-42452381D02*
X54238095Y-41452381D01*
X54000000Y-41452381D01*
X53857142Y-41500000D01*
X53761904Y-41595238D01*
X53714285Y-41690476D01*
X53666666Y-41880952D01*
X53666666Y-42023810D01*
X53714285Y-42214286D01*
X53761904Y-42309524D01*
X53857142Y-42404762D01*
X54000000Y-42452381D01*
X54238095Y-42452381D01*
X47261904Y-41500000D02*
X47357142Y-41452381D01*
X47499999Y-41452381D01*
X47642857Y-41500000D01*
X47738095Y-41595238D01*
X47785714Y-41690476D01*
X47833333Y-41880952D01*
X47833333Y-42023810D01*
X47785714Y-42214286D01*
X47738095Y-42309524D01*
X47642857Y-42404762D01*
X47499999Y-42452381D01*
X47404761Y-42452381D01*
X47261904Y-42404762D01*
X47214285Y-42357143D01*
X47214285Y-42023810D01*
X47404761Y-42023810D01*
X46785714Y-42452381D02*
X46785714Y-41452381D01*
X46214285Y-42452381D01*
X46214285Y-41452381D01*
X45738095Y-42452381D02*
X45738095Y-41452381D01*
X45500000Y-41452381D01*
X45357142Y-41500000D01*
X45261904Y-41595238D01*
X45214285Y-41690476D01*
X45166666Y-41880952D01*
X45166666Y-42023810D01*
X45214285Y-42214286D01*
X45261904Y-42309524D01*
X45357142Y-42404762D01*
X45500000Y-42452381D01*
X45738095Y-42452381D01*
X38761904Y-41500000D02*
X38857142Y-41452381D01*
X38999999Y-41452381D01*
X39142857Y-41500000D01*
X39238095Y-41595238D01*
X39285714Y-41690476D01*
X39333333Y-41880952D01*
X39333333Y-42023810D01*
X39285714Y-42214286D01*
X39238095Y-42309524D01*
X39142857Y-42404762D01*
X38999999Y-42452381D01*
X38904761Y-42452381D01*
X38761904Y-42404762D01*
X38714285Y-42357143D01*
X38714285Y-42023810D01*
X38904761Y-42023810D01*
X38285714Y-42452381D02*
X38285714Y-41452381D01*
X37714285Y-42452381D01*
X37714285Y-41452381D01*
X37238095Y-42452381D02*
X37238095Y-41452381D01*
X37000000Y-41452381D01*
X36857142Y-41500000D01*
X36761904Y-41595238D01*
X36714285Y-41690476D01*
X36666666Y-41880952D01*
X36666666Y-42023810D01*
X36714285Y-42214286D01*
X36761904Y-42309524D01*
X36857142Y-42404762D01*
X37000000Y-42452381D01*
X37238095Y-42452381D01*
X30261904Y-41500000D02*
X30357142Y-41452381D01*
X30499999Y-41452381D01*
X30642857Y-41500000D01*
X30738095Y-41595238D01*
X30785714Y-41690476D01*
X30833333Y-41880952D01*
X30833333Y-42023810D01*
X30785714Y-42214286D01*
X30738095Y-42309524D01*
X30642857Y-42404762D01*
X30499999Y-42452381D01*
X30404761Y-42452381D01*
X30261904Y-42404762D01*
X30214285Y-42357143D01*
X30214285Y-42023810D01*
X30404761Y-42023810D01*
X29785714Y-42452381D02*
X29785714Y-41452381D01*
X29214285Y-42452381D01*
X29214285Y-41452381D01*
X28738095Y-42452381D02*
X28738095Y-41452381D01*
X28500000Y-41452381D01*
X28357142Y-41500000D01*
X28261904Y-41595238D01*
X28214285Y-41690476D01*
X28166666Y-41880952D01*
X28166666Y-42023810D01*
X28214285Y-42214286D01*
X28261904Y-42309524D01*
X28357142Y-42404762D01*
X28500000Y-42452381D01*
X28738095Y-42452381D01*
X21761904Y-41500000D02*
X21857142Y-41452381D01*
X21999999Y-41452381D01*
X22142857Y-41500000D01*
X22238095Y-41595238D01*
X22285714Y-41690476D01*
X22333333Y-41880952D01*
X22333333Y-42023810D01*
X22285714Y-42214286D01*
X22238095Y-42309524D01*
X22142857Y-42404762D01*
X21999999Y-42452381D01*
X21904761Y-42452381D01*
X21761904Y-42404762D01*
X21714285Y-42357143D01*
X21714285Y-42023810D01*
X21904761Y-42023810D01*
X21285714Y-42452381D02*
X21285714Y-41452381D01*
X20714285Y-42452381D01*
X20714285Y-41452381D01*
X20238095Y-42452381D02*
X20238095Y-41452381D01*
X20000000Y-41452381D01*
X19857142Y-41500000D01*
X19761904Y-41595238D01*
X19714285Y-41690476D01*
X19666666Y-41880952D01*
X19666666Y-42023810D01*
X19714285Y-42214286D01*
X19761904Y-42309524D01*
X19857142Y-42404762D01*
X20000000Y-42452381D01*
X20238095Y-42452381D01*
X55761904Y-33000000D02*
X55857142Y-32952381D01*
X55999999Y-32952381D01*
X56142857Y-33000000D01*
X56238095Y-33095238D01*
X56285714Y-33190476D01*
X56333333Y-33380952D01*
X56333333Y-33523810D01*
X56285714Y-33714286D01*
X56238095Y-33809524D01*
X56142857Y-33904762D01*
X55999999Y-33952381D01*
X55904761Y-33952381D01*
X55761904Y-33904762D01*
X55714285Y-33857143D01*
X55714285Y-33523810D01*
X55904761Y-33523810D01*
X55285714Y-33952381D02*
X55285714Y-32952381D01*
X54714285Y-33952381D01*
X54714285Y-32952381D01*
X54238095Y-33952381D02*
X54238095Y-32952381D01*
X54000000Y-32952381D01*
X53857142Y-33000000D01*
X53761904Y-33095238D01*
X53714285Y-33190476D01*
X53666666Y-33380952D01*
X53666666Y-33523810D01*
X53714285Y-33714286D01*
X53761904Y-33809524D01*
X53857142Y-33904762D01*
X54000000Y-33952381D01*
X54238095Y-33952381D01*
X47261904Y-33000000D02*
X47357142Y-32952381D01*
X47499999Y-32952381D01*
X47642857Y-33000000D01*
X47738095Y-33095238D01*
X47785714Y-33190476D01*
X47833333Y-33380952D01*
X47833333Y-33523810D01*
X47785714Y-33714286D01*
X47738095Y-33809524D01*
X47642857Y-33904762D01*
X47499999Y-33952381D01*
X47404761Y-33952381D01*
X47261904Y-33904762D01*
X47214285Y-33857143D01*
X47214285Y-33523810D01*
X47404761Y-33523810D01*
X46785714Y-33952381D02*
X46785714Y-32952381D01*
X46214285Y-33952381D01*
X46214285Y-32952381D01*
X45738095Y-33952381D02*
X45738095Y-32952381D01*
X45500000Y-32952381D01*
X45357142Y-33000000D01*
X45261904Y-33095238D01*
X45214285Y-33190476D01*
X45166666Y-33380952D01*
X45166666Y-33523810D01*
X45214285Y-33714286D01*
X45261904Y-33809524D01*
X45357142Y-33904762D01*
X45500000Y-33952381D01*
X45738095Y-33952381D01*
X38761904Y-33000000D02*
X38857142Y-32952381D01*
X38999999Y-32952381D01*
X39142857Y-33000000D01*
X39238095Y-33095238D01*
X39285714Y-33190476D01*
X39333333Y-33380952D01*
X39333333Y-33523810D01*
X39285714Y-33714286D01*
X39238095Y-33809524D01*
X39142857Y-33904762D01*
X38999999Y-33952381D01*
X38904761Y-33952381D01*
X38761904Y-33904762D01*
X38714285Y-33857143D01*
X38714285Y-33523810D01*
X38904761Y-33523810D01*
X38285714Y-33952381D02*
X38285714Y-32952381D01*
X37714285Y-33952381D01*
X37714285Y-32952381D01*
X37238095Y-33952381D02*
X37238095Y-32952381D01*
X37000000Y-32952381D01*
X36857142Y-33000000D01*
X36761904Y-33095238D01*
X36714285Y-33190476D01*
X36666666Y-33380952D01*
X36666666Y-33523810D01*
X36714285Y-33714286D01*
X36761904Y-33809524D01*
X36857142Y-33904762D01*
X37000000Y-33952381D01*
X37238095Y-33952381D01*
X30261904Y-33000000D02*
X30357142Y-32952381D01*
X30499999Y-32952381D01*
X30642857Y-33000000D01*
X30738095Y-33095238D01*
X30785714Y-33190476D01*
X30833333Y-33380952D01*
X30833333Y-33523810D01*
X30785714Y-33714286D01*
X30738095Y-33809524D01*
X30642857Y-33904762D01*
X30499999Y-33952381D01*
X30404761Y-33952381D01*
X30261904Y-33904762D01*
X30214285Y-33857143D01*
X30214285Y-33523810D01*
X30404761Y-33523810D01*
X29785714Y-33952381D02*
X29785714Y-32952381D01*
X29214285Y-33952381D01*
X29214285Y-32952381D01*
X28738095Y-33952381D02*
X28738095Y-32952381D01*
X28500000Y-32952381D01*
X28357142Y-33000000D01*
X28261904Y-33095238D01*
X28214285Y-33190476D01*
X28166666Y-33380952D01*
X28166666Y-33523810D01*
X28214285Y-33714286D01*
X28261904Y-33809524D01*
X28357142Y-33904762D01*
X28500000Y-33952381D01*
X28738095Y-33952381D01*
X21761904Y-33000000D02*
X21857142Y-32952381D01*
X21999999Y-32952381D01*
X22142857Y-33000000D01*
X22238095Y-33095238D01*
X22285714Y-33190476D01*
X22333333Y-33380952D01*
X22333333Y-33523810D01*
X22285714Y-33714286D01*
X22238095Y-33809524D01*
X22142857Y-33904762D01*
X21999999Y-33952381D01*
X21904761Y-33952381D01*
X21761904Y-33904762D01*
X21714285Y-33857143D01*
X21714285Y-33523810D01*
X21904761Y-33523810D01*
X21285714Y-33952381D02*
X21285714Y-32952381D01*
X20714285Y-33952381D01*
X20714285Y-32952381D01*
X20238095Y-33952381D02*
X20238095Y-32952381D01*
X20000000Y-32952381D01*
X19857142Y-33000000D01*
X19761904Y-33095238D01*
X19714285Y-33190476D01*
X19666666Y-33380952D01*
X19666666Y-33523810D01*
X19714285Y-33714286D01*
X19761904Y-33809524D01*
X19857142Y-33904762D01*
X20000000Y-33952381D01*
X20238095Y-33952381D01*
X55761904Y-24500000D02*
X55857142Y-24452381D01*
X55999999Y-24452381D01*
X56142857Y-24500000D01*
X56238095Y-24595238D01*
X56285714Y-24690476D01*
X56333333Y-24880952D01*
X56333333Y-25023810D01*
X56285714Y-25214286D01*
X56238095Y-25309524D01*
X56142857Y-25404762D01*
X55999999Y-25452381D01*
X55904761Y-25452381D01*
X55761904Y-25404762D01*
X55714285Y-25357143D01*
X55714285Y-25023810D01*
X55904761Y-25023810D01*
X55285714Y-25452381D02*
X55285714Y-24452381D01*
X54714285Y-25452381D01*
X54714285Y-24452381D01*
X54238095Y-25452381D02*
X54238095Y-24452381D01*
X54000000Y-24452381D01*
X53857142Y-24500000D01*
X53761904Y-24595238D01*
X53714285Y-24690476D01*
X53666666Y-24880952D01*
X53666666Y-25023810D01*
X53714285Y-25214286D01*
X53761904Y-25309524D01*
X53857142Y-25404762D01*
X54000000Y-25452381D01*
X54238095Y-25452381D01*
X47261904Y-24500000D02*
X47357142Y-24452381D01*
X47499999Y-24452381D01*
X47642857Y-24500000D01*
X47738095Y-24595238D01*
X47785714Y-24690476D01*
X47833333Y-24880952D01*
X47833333Y-25023810D01*
X47785714Y-25214286D01*
X47738095Y-25309524D01*
X47642857Y-25404762D01*
X47499999Y-25452381D01*
X47404761Y-25452381D01*
X47261904Y-25404762D01*
X47214285Y-25357143D01*
X47214285Y-25023810D01*
X47404761Y-25023810D01*
X46785714Y-25452381D02*
X46785714Y-24452381D01*
X46214285Y-25452381D01*
X46214285Y-24452381D01*
X45738095Y-25452381D02*
X45738095Y-24452381D01*
X45500000Y-24452381D01*
X45357142Y-24500000D01*
X45261904Y-24595238D01*
X45214285Y-24690476D01*
X45166666Y-24880952D01*
X45166666Y-25023810D01*
X45214285Y-25214286D01*
X45261904Y-25309524D01*
X45357142Y-25404762D01*
X45500000Y-25452381D01*
X45738095Y-25452381D01*
X38761904Y-24500000D02*
X38857142Y-24452381D01*
X38999999Y-24452381D01*
X39142857Y-24500000D01*
X39238095Y-24595238D01*
X39285714Y-24690476D01*
X39333333Y-24880952D01*
X39333333Y-25023810D01*
X39285714Y-25214286D01*
X39238095Y-25309524D01*
X39142857Y-25404762D01*
X38999999Y-25452381D01*
X38904761Y-25452381D01*
X38761904Y-25404762D01*
X38714285Y-25357143D01*
X38714285Y-25023810D01*
X38904761Y-25023810D01*
X38285714Y-25452381D02*
X38285714Y-24452381D01*
X37714285Y-25452381D01*
X37714285Y-24452381D01*
X37238095Y-25452381D02*
X37238095Y-24452381D01*
X37000000Y-24452381D01*
X36857142Y-24500000D01*
X36761904Y-24595238D01*
X36714285Y-24690476D01*
X36666666Y-24880952D01*
X36666666Y-25023810D01*
X36714285Y-25214286D01*
X36761904Y-25309524D01*
X36857142Y-25404762D01*
X37000000Y-25452381D01*
X37238095Y-25452381D01*
X30261904Y-24500000D02*
X30357142Y-24452381D01*
X30499999Y-24452381D01*
X30642857Y-24500000D01*
X30738095Y-24595238D01*
X30785714Y-24690476D01*
X30833333Y-24880952D01*
X30833333Y-25023810D01*
X30785714Y-25214286D01*
X30738095Y-25309524D01*
X30642857Y-25404762D01*
X30499999Y-25452381D01*
X30404761Y-25452381D01*
X30261904Y-25404762D01*
X30214285Y-25357143D01*
X30214285Y-25023810D01*
X30404761Y-25023810D01*
X29785714Y-25452381D02*
X29785714Y-24452381D01*
X29214285Y-25452381D01*
X29214285Y-24452381D01*
X28738095Y-25452381D02*
X28738095Y-24452381D01*
X28500000Y-24452381D01*
X28357142Y-24500000D01*
X28261904Y-24595238D01*
X28214285Y-24690476D01*
X28166666Y-24880952D01*
X28166666Y-25023810D01*
X28214285Y-25214286D01*
X28261904Y-25309524D01*
X28357142Y-25404762D01*
X28500000Y-25452381D01*
X28738095Y-25452381D01*
X55190476Y-53452381D02*
X55666667Y-53452381D01*
X55714286Y-53928571D01*
X55666667Y-53880952D01*
X55571429Y-53833333D01*
X55333333Y-53833333D01*
X55238095Y-53880952D01*
X55190476Y-53928571D01*
X55142857Y-54023810D01*
X55142857Y-54261905D01*
X55190476Y-54357143D01*
X55238095Y-54404762D01*
X55333333Y-54452381D01*
X55571429Y-54452381D01*
X55666667Y-54404762D01*
X55714286Y-54357143D01*
X54857143Y-53452381D02*
X54523810Y-54452381D01*
X54190476Y-53452381D01*
X46690476Y-53452381D02*
X47166667Y-53452381D01*
X47214286Y-53928571D01*
X47166667Y-53880952D01*
X47071429Y-53833333D01*
X46833333Y-53833333D01*
X46738095Y-53880952D01*
X46690476Y-53928571D01*
X46642857Y-54023810D01*
X46642857Y-54261905D01*
X46690476Y-54357143D01*
X46738095Y-54404762D01*
X46833333Y-54452381D01*
X47071429Y-54452381D01*
X47166667Y-54404762D01*
X47214286Y-54357143D01*
X46357143Y-53452381D02*
X46023810Y-54452381D01*
X45690476Y-53452381D01*
X38190476Y-53452381D02*
X38666667Y-53452381D01*
X38714286Y-53928571D01*
X38666667Y-53880952D01*
X38571429Y-53833333D01*
X38333333Y-53833333D01*
X38238095Y-53880952D01*
X38190476Y-53928571D01*
X38142857Y-54023810D01*
X38142857Y-54261905D01*
X38190476Y-54357143D01*
X38238095Y-54404762D01*
X38333333Y-54452381D01*
X38571429Y-54452381D01*
X38666667Y-54404762D01*
X38714286Y-54357143D01*
X37857143Y-53452381D02*
X37523810Y-54452381D01*
X37190476Y-53452381D01*
X29690476Y-53452381D02*
X30166667Y-53452381D01*
X30214286Y-53928571D01*
X30166667Y-53880952D01*
X30071429Y-53833333D01*
X29833333Y-53833333D01*
X29738095Y-53880952D01*
X29690476Y-53928571D01*
X29642857Y-54023810D01*
X29642857Y-54261905D01*
X29690476Y-54357143D01*
X29738095Y-54404762D01*
X29833333Y-54452381D01*
X30071429Y-54452381D01*
X30166667Y-54404762D01*
X30214286Y-54357143D01*
X29357143Y-53452381D02*
X29023810Y-54452381D01*
X28690476Y-53452381D01*
X21190476Y-53452381D02*
X21666667Y-53452381D01*
X21714286Y-53928571D01*
X21666667Y-53880952D01*
X21571429Y-53833333D01*
X21333333Y-53833333D01*
X21238095Y-53880952D01*
X21190476Y-53928571D01*
X21142857Y-54023810D01*
X21142857Y-54261905D01*
X21190476Y-54357143D01*
X21238095Y-54404762D01*
X21333333Y-54452381D01*
X21571429Y-54452381D01*
X21666667Y-54404762D01*
X21714286Y-54357143D01*
X20857143Y-53452381D02*
X20523810Y-54452381D01*
X20190476Y-53452381D01*
X55190476Y-44952381D02*
X55666667Y-44952381D01*
X55714286Y-45428571D01*
X55666667Y-45380952D01*
X55571429Y-45333333D01*
X55333333Y-45333333D01*
X55238095Y-45380952D01*
X55190476Y-45428571D01*
X55142857Y-45523810D01*
X55142857Y-45761905D01*
X55190476Y-45857143D01*
X55238095Y-45904762D01*
X55333333Y-45952381D01*
X55571429Y-45952381D01*
X55666667Y-45904762D01*
X55714286Y-45857143D01*
X54857143Y-44952381D02*
X54523810Y-45952381D01*
X54190476Y-44952381D01*
X46690476Y-44952381D02*
X47166667Y-44952381D01*
X47214286Y-45428571D01*
X47166667Y-45380952D01*
X47071429Y-45333333D01*
X46833333Y-45333333D01*
X46738095Y-45380952D01*
X46690476Y-45428571D01*
X46642857Y-45523810D01*
X46642857Y-45761905D01*
X46690476Y-45857143D01*
X46738095Y-45904762D01*
X46833333Y-45952381D01*
X47071429Y-45952381D01*
X47166667Y-45904762D01*
X47214286Y-45857143D01*
X46357143Y-44952381D02*
X46023810Y-45952381D01*
X45690476Y-44952381D01*
X38190476Y-44952381D02*
X38666667Y-44952381D01*
X38714286Y-45428571D01*
X38666667Y-45380952D01*
X38571429Y-45333333D01*
X38333333Y-45333333D01*
X38238095Y-45380952D01*
X38190476Y-45428571D01*
X38142857Y-45523810D01*
X38142857Y-45761905D01*
X38190476Y-45857143D01*
X38238095Y-45904762D01*
X38333333Y-45952381D01*
X38571429Y-45952381D01*
X38666667Y-45904762D01*
X38714286Y-45857143D01*
X37857143Y-44952381D02*
X37523810Y-45952381D01*
X37190476Y-44952381D01*
X29690476Y-44952381D02*
X30166667Y-44952381D01*
X30214286Y-45428571D01*
X30166667Y-45380952D01*
X30071429Y-45333333D01*
X29833333Y-45333333D01*
X29738095Y-45380952D01*
X29690476Y-45428571D01*
X29642857Y-45523810D01*
X29642857Y-45761905D01*
X29690476Y-45857143D01*
X29738095Y-45904762D01*
X29833333Y-45952381D01*
X30071429Y-45952381D01*
X30166667Y-45904762D01*
X30214286Y-45857143D01*
X29357143Y-44952381D02*
X29023810Y-45952381D01*
X28690476Y-44952381D01*
X21190476Y-44952381D02*
X21666667Y-44952381D01*
X21714286Y-45428571D01*
X21666667Y-45380952D01*
X21571429Y-45333333D01*
X21333333Y-45333333D01*
X21238095Y-45380952D01*
X21190476Y-45428571D01*
X21142857Y-45523810D01*
X21142857Y-45761905D01*
X21190476Y-45857143D01*
X21238095Y-45904762D01*
X21333333Y-45952381D01*
X21571429Y-45952381D01*
X21666667Y-45904762D01*
X21714286Y-45857143D01*
X20857143Y-44952381D02*
X20523810Y-45952381D01*
X20190476Y-44952381D01*
X55190476Y-36452381D02*
X55666667Y-36452381D01*
X55714286Y-36928571D01*
X55666667Y-36880952D01*
X55571429Y-36833333D01*
X55333333Y-36833333D01*
X55238095Y-36880952D01*
X55190476Y-36928571D01*
X55142857Y-37023810D01*
X55142857Y-37261905D01*
X55190476Y-37357143D01*
X55238095Y-37404762D01*
X55333333Y-37452381D01*
X55571429Y-37452381D01*
X55666667Y-37404762D01*
X55714286Y-37357143D01*
X54857143Y-36452381D02*
X54523810Y-37452381D01*
X54190476Y-36452381D01*
X46690476Y-36452381D02*
X47166667Y-36452381D01*
X47214286Y-36928571D01*
X47166667Y-36880952D01*
X47071429Y-36833333D01*
X46833333Y-36833333D01*
X46738095Y-36880952D01*
X46690476Y-36928571D01*
X46642857Y-37023810D01*
X46642857Y-37261905D01*
X46690476Y-37357143D01*
X46738095Y-37404762D01*
X46833333Y-37452381D01*
X47071429Y-37452381D01*
X47166667Y-37404762D01*
X47214286Y-37357143D01*
X46357143Y-36452381D02*
X46023810Y-37452381D01*
X45690476Y-36452381D01*
X38190476Y-36452381D02*
X38666667Y-36452381D01*
X38714286Y-36928571D01*
X38666667Y-36880952D01*
X38571429Y-36833333D01*
X38333333Y-36833333D01*
X38238095Y-36880952D01*
X38190476Y-36928571D01*
X38142857Y-37023810D01*
X38142857Y-37261905D01*
X38190476Y-37357143D01*
X38238095Y-37404762D01*
X38333333Y-37452381D01*
X38571429Y-37452381D01*
X38666667Y-37404762D01*
X38714286Y-37357143D01*
X37857143Y-36452381D02*
X37523810Y-37452381D01*
X37190476Y-36452381D01*
X29690476Y-36452381D02*
X30166667Y-36452381D01*
X30214286Y-36928571D01*
X30166667Y-36880952D01*
X30071429Y-36833333D01*
X29833333Y-36833333D01*
X29738095Y-36880952D01*
X29690476Y-36928571D01*
X29642857Y-37023810D01*
X29642857Y-37261905D01*
X29690476Y-37357143D01*
X29738095Y-37404762D01*
X29833333Y-37452381D01*
X30071429Y-37452381D01*
X30166667Y-37404762D01*
X30214286Y-37357143D01*
X29357143Y-36452381D02*
X29023810Y-37452381D01*
X28690476Y-36452381D01*
X21190476Y-36452381D02*
X21666667Y-36452381D01*
X21714286Y-36928571D01*
X21666667Y-36880952D01*
X21571429Y-36833333D01*
X21333333Y-36833333D01*
X21238095Y-36880952D01*
X21190476Y-36928571D01*
X21142857Y-37023810D01*
X21142857Y-37261905D01*
X21190476Y-37357143D01*
X21238095Y-37404762D01*
X21333333Y-37452381D01*
X21571429Y-37452381D01*
X21666667Y-37404762D01*
X21714286Y-37357143D01*
X20857143Y-36452381D02*
X20523810Y-37452381D01*
X20190476Y-36452381D01*
X55190476Y-27952381D02*
X55666667Y-27952381D01*
X55714286Y-28428571D01*
X55666667Y-28380952D01*
X55571429Y-28333333D01*
X55333333Y-28333333D01*
X55238095Y-28380952D01*
X55190476Y-28428571D01*
X55142857Y-28523810D01*
X55142857Y-28761905D01*
X55190476Y-28857143D01*
X55238095Y-28904762D01*
X55333333Y-28952381D01*
X55571429Y-28952381D01*
X55666667Y-28904762D01*
X55714286Y-28857143D01*
X54857143Y-27952381D02*
X54523810Y-28952381D01*
X54190476Y-27952381D01*
X46690476Y-27952381D02*
X47166667Y-27952381D01*
X47214286Y-28428571D01*
X47166667Y-28380952D01*
X47071429Y-28333333D01*
X46833333Y-28333333D01*
X46738095Y-28380952D01*
X46690476Y-28428571D01*
X46642857Y-28523810D01*
X46642857Y-28761905D01*
X46690476Y-28857143D01*
X46738095Y-28904762D01*
X46833333Y-28952381D01*
X47071429Y-28952381D01*
X47166667Y-28904762D01*
X47214286Y-28857143D01*
X46357143Y-27952381D02*
X46023810Y-28952381D01*
X45690476Y-27952381D01*
X38190476Y-27952381D02*
X38666667Y-27952381D01*
X38714286Y-28428571D01*
X38666667Y-28380952D01*
X38571429Y-28333333D01*
X38333333Y-28333333D01*
X38238095Y-28380952D01*
X38190476Y-28428571D01*
X38142857Y-28523810D01*
X38142857Y-28761905D01*
X38190476Y-28857143D01*
X38238095Y-28904762D01*
X38333333Y-28952381D01*
X38571429Y-28952381D01*
X38666667Y-28904762D01*
X38714286Y-28857143D01*
X37857143Y-27952381D02*
X37523810Y-28952381D01*
X37190476Y-27952381D01*
X29690476Y-27952381D02*
X30166667Y-27952381D01*
X30214286Y-28428571D01*
X30166667Y-28380952D01*
X30071429Y-28333333D01*
X29833333Y-28333333D01*
X29738095Y-28380952D01*
X29690476Y-28428571D01*
X29642857Y-28523810D01*
X29642857Y-28761905D01*
X29690476Y-28857143D01*
X29738095Y-28904762D01*
X29833333Y-28952381D01*
X30071429Y-28952381D01*
X30166667Y-28904762D01*
X30214286Y-28857143D01*
X29357143Y-27952381D02*
X29023810Y-28952381D01*
X28690476Y-27952381D01*
X21190476Y-27952381D02*
X21666667Y-27952381D01*
X21714286Y-28428571D01*
X21666667Y-28380952D01*
X21571429Y-28333333D01*
X21333333Y-28333333D01*
X21238095Y-28380952D01*
X21190476Y-28428571D01*
X21142857Y-28523810D01*
X21142857Y-28761905D01*
X21190476Y-28857143D01*
X21238095Y-28904762D01*
X21333333Y-28952381D01*
X21571429Y-28952381D01*
X21666667Y-28904762D01*
X21714286Y-28857143D01*
X20857143Y-27952381D02*
X20523810Y-28952381D01*
X20190476Y-27952381D01*
X55190476Y-19452381D02*
X55666667Y-19452381D01*
X55714286Y-19928571D01*
X55666667Y-19880952D01*
X55571429Y-19833333D01*
X55333333Y-19833333D01*
X55238095Y-19880952D01*
X55190476Y-19928571D01*
X55142857Y-20023810D01*
X55142857Y-20261905D01*
X55190476Y-20357143D01*
X55238095Y-20404762D01*
X55333333Y-20452381D01*
X55571429Y-20452381D01*
X55666667Y-20404762D01*
X55714286Y-20357143D01*
X54857143Y-19452381D02*
X54523810Y-20452381D01*
X54190476Y-19452381D01*
X46690476Y-19452381D02*
X47166667Y-19452381D01*
X47214286Y-19928571D01*
X47166667Y-19880952D01*
X47071429Y-19833333D01*
X46833333Y-19833333D01*
X46738095Y-19880952D01*
X46690476Y-19928571D01*
X46642857Y-20023810D01*
X46642857Y-20261905D01*
X46690476Y-20357143D01*
X46738095Y-20404762D01*
X46833333Y-20452381D01*
X47071429Y-20452381D01*
X47166667Y-20404762D01*
X47214286Y-20357143D01*
X46357143Y-19452381D02*
X46023810Y-20452381D01*
X45690476Y-19452381D01*
X38190476Y-19452381D02*
X38666667Y-19452381D01*
X38714286Y-19928571D01*
X38666667Y-19880952D01*
X38571429Y-19833333D01*
X38333333Y-19833333D01*
X38238095Y-19880952D01*
X38190476Y-19928571D01*
X38142857Y-20023810D01*
X38142857Y-20261905D01*
X38190476Y-20357143D01*
X38238095Y-20404762D01*
X38333333Y-20452381D01*
X38571429Y-20452381D01*
X38666667Y-20404762D01*
X38714286Y-20357143D01*
X37857143Y-19452381D02*
X37523810Y-20452381D01*
X37190476Y-19452381D01*
X29690476Y-19452381D02*
X30166667Y-19452381D01*
X30214286Y-19928571D01*
X30166667Y-19880952D01*
X30071429Y-19833333D01*
X29833333Y-19833333D01*
X29738095Y-19880952D01*
X29690476Y-19928571D01*
X29642857Y-20023810D01*
X29642857Y-20261905D01*
X29690476Y-20357143D01*
X29738095Y-20404762D01*
X29833333Y-20452381D01*
X30071429Y-20452381D01*
X30166667Y-20404762D01*
X30214286Y-20357143D01*
X29357143Y-19452381D02*
X29023810Y-20452381D01*
X28690476Y-19452381D01*
D13*
X54000000Y-57178571D02*
X54000000Y-55678571D01*
X45500000Y-57178571D02*
X45500000Y-55678571D01*
X37000000Y-57178571D02*
X37000000Y-55678571D01*
X28500000Y-57178571D02*
X28500000Y-55678571D01*
X20000000Y-57178571D02*
X20000000Y-55678571D01*
X54000000Y-48678571D02*
X54000000Y-47178571D01*
X45500000Y-48678571D02*
X45500000Y-47178571D01*
X37000000Y-48678571D02*
X37000000Y-47178571D01*
X28500000Y-48678571D02*
X28500000Y-47178571D01*
X20000000Y-48678571D02*
X20000000Y-47178571D01*
X54000000Y-40178571D02*
X54000000Y-38678571D01*
X45500000Y-40178571D02*
X45500000Y-38678571D01*
X37000000Y-40178571D02*
X37000000Y-38678571D01*
X28500000Y-40178571D02*
X28500000Y-38678571D01*
X20000000Y-40178571D02*
X20000000Y-38678571D01*
X54000000Y-31678571D02*
X54000000Y-30178571D01*
X45500000Y-31678571D02*
X45500000Y-30178571D01*
X37000000Y-31678571D02*
X37000000Y-30178571D01*
X28500000Y-31678571D02*
X28500000Y-30178571D01*
X20000000Y-31678571D02*
X20000000Y-30178571D01*
X54000000Y-23178571D02*
X54000000Y-21678571D01*
X45500000Y-23178571D02*
X45500000Y-21678571D01*
X37000000Y-23178571D02*
X37000000Y-21678571D01*
X28500000Y-23178571D02*
X28500000Y-21678571D01*
X55642857Y-55678571D02*
X55357143Y-55678571D01*
X55214285Y-55750000D01*
X55071428Y-55892857D01*
X55000000Y-56178571D01*
X55000000Y-56678571D01*
X55071428Y-56964286D01*
X55214285Y-57107143D01*
X55357143Y-57178571D01*
X55642857Y-57178571D01*
X55785714Y-57107143D01*
X55928571Y-56964286D01*
X56000000Y-56678571D01*
X56000000Y-56178571D01*
X55928571Y-55892857D01*
X55785714Y-55750000D01*
X55642857Y-55678571D01*
X47142857Y-55678571D02*
X46857143Y-55678571D01*
X46714285Y-55750000D01*
X46571428Y-55892857D01*
X46500000Y-56178571D01*
X46500000Y-56678571D01*
X46571428Y-56964286D01*
X46714285Y-57107143D01*
X46857143Y-57178571D01*
X47142857Y-57178571D01*
X47285714Y-57107143D01*
X47428571Y-56964286D01*
X47500000Y-56678571D01*
X47500000Y-56178571D01*
X47428571Y-55892857D01*
X47285714Y-55750000D01*
X47142857Y-55678571D01*
X38642857Y-55678571D02*
X38357143Y-55678571D01*
X38214285Y-55750000D01*
X38071428Y-55892857D01*
X38000000Y-56178571D01*
X38000000Y-56678571D01*
X38071428Y-56964286D01*
X38214285Y-57107143D01*
X38357143Y-57178571D01*
X38642857Y-57178571D01*
X38785714Y-57107143D01*
X38928571Y-56964286D01*
X39000000Y-56678571D01*
X39000000Y-56178571D01*
X38928571Y-55892857D01*
X38785714Y-55750000D01*
X38642857Y-55678571D01*
X30142857Y-55678571D02*
X29857143Y-55678571D01*
X29714285Y-55750000D01*
X29571428Y-55892857D01*
X29500000Y-56178571D01*
X29500000Y-56678571D01*
X29571428Y-56964286D01*
X29714285Y-57107143D01*
X29857143Y-57178571D01*
X30142857Y-57178571D01*
X30285714Y-57107143D01*
X30428571Y-56964286D01*
X30500000Y-56678571D01*
X30500000Y-56178571D01*
X30428571Y-55892857D01*
X30285714Y-55750000D01*
X30142857Y-55678571D01*
X21642857Y-55678571D02*
X21357143Y-55678571D01*
X21214285Y-55750000D01*
X21071428Y-55892857D01*
X21000000Y-56178571D01*
X21000000Y-56678571D01*
X21071428Y-56964286D01*
X21214285Y-57107143D01*
X21357143Y-57178571D01*
X21642857Y-57178571D01*
X21785714Y-57107143D01*
X21928571Y-56964286D01*
X22000000Y-56678571D01*
X22000000Y-56178571D01*
X21928571Y-55892857D01*
X21785714Y-55750000D01*
X21642857Y-55678571D01*
X55642857Y-47178571D02*
X55357143Y-47178571D01*
X55214285Y-47250000D01*
X55071428Y-47392857D01*
X55000000Y-47678571D01*
X55000000Y-48178571D01*
X55071428Y-48464286D01*
X55214285Y-48607143D01*
X55357143Y-48678571D01*
X55642857Y-48678571D01*
X55785714Y-48607143D01*
X55928571Y-48464286D01*
X56000000Y-48178571D01*
X56000000Y-47678571D01*
X55928571Y-47392857D01*
X55785714Y-47250000D01*
X55642857Y-47178571D01*
X47142857Y-47178571D02*
X46857143Y-47178571D01*
X46714285Y-47250000D01*
X46571428Y-47392857D01*
X46500000Y-47678571D01*
X46500000Y-48178571D01*
X46571428Y-48464286D01*
X46714285Y-48607143D01*
X46857143Y-48678571D01*
X47142857Y-48678571D01*
X47285714Y-48607143D01*
X47428571Y-48464286D01*
X47500000Y-48178571D01*
X47500000Y-47678571D01*
X47428571Y-47392857D01*
X47285714Y-47250000D01*
X47142857Y-47178571D01*
X38642857Y-47178571D02*
X38357143Y-47178571D01*
X38214285Y-47250000D01*
X38071428Y-47392857D01*
X38000000Y-47678571D01*
X38000000Y-48178571D01*
X38071428Y-48464286D01*
X38214285Y-48607143D01*
X38357143Y-48678571D01*
X38642857Y-48678571D01*
X38785714Y-48607143D01*
X38928571Y-48464286D01*
X39000000Y-48178571D01*
X39000000Y-47678571D01*
X38928571Y-47392857D01*
X38785714Y-47250000D01*
X38642857Y-47178571D01*
X30142857Y-47178571D02*
X29857143Y-47178571D01*
X29714285Y-47250000D01*
X29571428Y-47392857D01*
X29500000Y-47678571D01*
X29500000Y-48178571D01*
X29571428Y-48464286D01*
X29714285Y-48607143D01*
X29857143Y-48678571D01*
X30142857Y-48678571D01*
X30285714Y-48607143D01*
X30428571Y-48464286D01*
X30500000Y-48178571D01*
X30500000Y-47678571D01*
X30428571Y-47392857D01*
X30285714Y-47250000D01*
X30142857Y-47178571D01*
X21642857Y-47178571D02*
X21357143Y-47178571D01*
X21214285Y-47250000D01*
X21071428Y-47392857D01*
X21000000Y-47678571D01*
X21000000Y-48178571D01*
X21071428Y-48464286D01*
X21214285Y-48607143D01*
X21357143Y-48678571D01*
X21642857Y-48678571D01*
X21785714Y-48607143D01*
X21928571Y-48464286D01*
X22000000Y-48178571D01*
X22000000Y-47678571D01*
X21928571Y-47392857D01*
X21785714Y-47250000D01*
X21642857Y-47178571D01*
X55642857Y-38678571D02*
X55357143Y-38678571D01*
X55214285Y-38750000D01*
X55071428Y-38892857D01*
X55000000Y-39178571D01*
X55000000Y-39678571D01*
X55071428Y-39964286D01*
X55214285Y-40107143D01*
X55357143Y-40178571D01*
X55642857Y-40178571D01*
X55785714Y-40107143D01*
X55928571Y-39964286D01*
X56000000Y-39678571D01*
X56000000Y-39178571D01*
X55928571Y-38892857D01*
X55785714Y-38750000D01*
X55642857Y-38678571D01*
X47142857Y-38678571D02*
X46857143Y-38678571D01*
X46714285Y-38750000D01*
X46571428Y-38892857D01*
X46500000Y-39178571D01*
X46500000Y-39678571D01*
X46571428Y-39964286D01*
X46714285Y-40107143D01*
X46857143Y-40178571D01*
X47142857Y-40178571D01*
X47285714Y-40107143D01*
X47428571Y-39964286D01*
X47500000Y-39678571D01*
X47500000Y-39178571D01*
X47428571Y-38892857D01*
X47285714Y-38750000D01*
X47142857Y-38678571D01*
X38642857Y-38678571D02*
X38357143Y-38678571D01*
X38214285Y-38750000D01*
X38071428Y-38892857D01*
X38000000Y-39178571D01*
X38000000Y-39678571D01*
X38071428Y-39964286D01*
X38214285Y-40107143D01*
X38357143Y-40178571D01*
X38642857Y-40178571D01*
X38785714Y-40107143D01*
X38928571Y-39964286D01*
X39000000Y-39678571D01*
X39000000Y-39178571D01*
X38928571Y-38892857D01*
X38785714Y-38750000D01*
X38642857Y-38678571D01*
X30142857Y-38678571D02*
X29857143Y-38678571D01*
X29714285Y-38750000D01*
X29571428Y-38892857D01*
X29500000Y-39178571D01*
X29500000Y-39678571D01*
X29571428Y-39964286D01*
X29714285Y-40107143D01*
X29857143Y-40178571D01*
X30142857Y-40178571D01*
X30285714Y-40107143D01*
X30428571Y-39964286D01*
X30500000Y-39678571D01*
X30500000Y-39178571D01*
X30428571Y-38892857D01*
X30285714Y-38750000D01*
X30142857Y-38678571D01*
X21642857Y-38678571D02*
X21357143Y-38678571D01*
X21214285Y-38750000D01*
X21071428Y-38892857D01*
X21000000Y-39178571D01*
X21000000Y-39678571D01*
X21071428Y-39964286D01*
X21214285Y-40107143D01*
X21357143Y-40178571D01*
X21642857Y-40178571D01*
X21785714Y-40107143D01*
X21928571Y-39964286D01*
X22000000Y-39678571D01*
X22000000Y-39178571D01*
X21928571Y-38892857D01*
X21785714Y-38750000D01*
X21642857Y-38678571D01*
X55642857Y-30178571D02*
X55357143Y-30178571D01*
X55214285Y-30250000D01*
X55071428Y-30392857D01*
X55000000Y-30678571D01*
X55000000Y-31178571D01*
X55071428Y-31464286D01*
X55214285Y-31607143D01*
X55357143Y-31678571D01*
X55642857Y-31678571D01*
X55785714Y-31607143D01*
X55928571Y-31464286D01*
X56000000Y-31178571D01*
X56000000Y-30678571D01*
X55928571Y-30392857D01*
X55785714Y-30250000D01*
X55642857Y-30178571D01*
X47142857Y-30178571D02*
X46857143Y-30178571D01*
X46714285Y-30250000D01*
X46571428Y-30392857D01*
X46500000Y-30678571D01*
X46500000Y-31178571D01*
X46571428Y-31464286D01*
X46714285Y-31607143D01*
X46857143Y-31678571D01*
X47142857Y-31678571D01*
X47285714Y-31607143D01*
X47428571Y-31464286D01*
X47500000Y-31178571D01*
X47500000Y-30678571D01*
X47428571Y-30392857D01*
X47285714Y-30250000D01*
X47142857Y-30178571D01*
X38642857Y-30178571D02*
X38357143Y-30178571D01*
X38214285Y-30250000D01*
X38071428Y-30392857D01*
X38000000Y-30678571D01*
X38000000Y-31178571D01*
X38071428Y-31464286D01*
X38214285Y-31607143D01*
X38357143Y-31678571D01*
X38642857Y-31678571D01*
X38785714Y-31607143D01*
X38928571Y-31464286D01*
X39000000Y-31178571D01*
X39000000Y-30678571D01*
X38928571Y-30392857D01*
X38785714Y-30250000D01*
X38642857Y-30178571D01*
X30142857Y-30178571D02*
X29857143Y-30178571D01*
X29714285Y-30250000D01*
X29571428Y-30392857D01*
X29500000Y-30678571D01*
X29500000Y-31178571D01*
X29571428Y-31464286D01*
X29714285Y-31607143D01*
X29857143Y-31678571D01*
X30142857Y-31678571D01*
X30285714Y-31607143D01*
X30428571Y-31464286D01*
X30500000Y-31178571D01*
X30500000Y-30678571D01*
X30428571Y-30392857D01*
X30285714Y-30250000D01*
X30142857Y-30178571D01*
X21642857Y-30178571D02*
X21357143Y-30178571D01*
X21214285Y-30250000D01*
X21071428Y-30392857D01*
X21000000Y-30678571D01*
X21000000Y-31178571D01*
X21071428Y-31464286D01*
X21214285Y-31607143D01*
X21357143Y-31678571D01*
X21642857Y-31678571D01*
X21785714Y-31607143D01*
X21928571Y-31464286D01*
X22000000Y-31178571D01*
X22000000Y-30678571D01*
X21928571Y-30392857D01*
X21785714Y-30250000D01*
X21642857Y-30178571D01*
X55642857Y-21678571D02*
X55357143Y-21678571D01*
X55214285Y-21750000D01*
X55071428Y-21892857D01*
X55000000Y-22178571D01*
X55000000Y-22678571D01*
X55071428Y-22964286D01*
X55214285Y-23107143D01*
X55357143Y-23178571D01*
X55642857Y-23178571D01*
X55785714Y-23107143D01*
X55928571Y-22964286D01*
X56000000Y-22678571D01*
X56000000Y-22178571D01*
X55928571Y-21892857D01*
X55785714Y-21750000D01*
X55642857Y-21678571D01*
X47142857Y-21678571D02*
X46857143Y-21678571D01*
X46714285Y-21750000D01*
X46571428Y-21892857D01*
X46500000Y-22178571D01*
X46500000Y-22678571D01*
X46571428Y-22964286D01*
X46714285Y-23107143D01*
X46857143Y-23178571D01*
X47142857Y-23178571D01*
X47285714Y-23107143D01*
X47428571Y-22964286D01*
X47500000Y-22678571D01*
X47500000Y-22178571D01*
X47428571Y-21892857D01*
X47285714Y-21750000D01*
X47142857Y-21678571D01*
X38642857Y-21678571D02*
X38357143Y-21678571D01*
X38214285Y-21750000D01*
X38071428Y-21892857D01*
X38000000Y-22178571D01*
X38000000Y-22678571D01*
X38071428Y-22964286D01*
X38214285Y-23107143D01*
X38357143Y-23178571D01*
X38642857Y-23178571D01*
X38785714Y-23107143D01*
X38928571Y-22964286D01*
X39000000Y-22678571D01*
X39000000Y-22178571D01*
X38928571Y-21892857D01*
X38785714Y-21750000D01*
X38642857Y-21678571D01*
X30142857Y-21678571D02*
X29857143Y-21678571D01*
X29714285Y-21750000D01*
X29571428Y-21892857D01*
X29500000Y-22178571D01*
X29500000Y-22678571D01*
X29571428Y-22964286D01*
X29714285Y-23107143D01*
X29857143Y-23178571D01*
X30142857Y-23178571D01*
X30285714Y-23107143D01*
X30428571Y-22964286D01*
X30500000Y-22678571D01*
X30500000Y-22178571D01*
X30428571Y-21892857D01*
X30285714Y-21750000D01*
X30142857Y-21678571D01*
D11*
X22000000Y-20000000D02*
X22500000Y-20000000D01*
X19500000Y-20000000D02*
X20000000Y-20000000D01*
D13*
X21642857Y-21678571D02*
X21357143Y-21678571D01*
X21214285Y-21750000D01*
X21071428Y-21892857D01*
X21000000Y-22178571D01*
X21000000Y-22678571D01*
X21071428Y-22964286D01*
X21214285Y-23107143D01*
X21357143Y-23178571D01*
X21642857Y-23178571D01*
X21785714Y-23107143D01*
X21928571Y-22964286D01*
X22000000Y-22678571D01*
X22000000Y-22178571D01*
X21928571Y-21892857D01*
X21785714Y-21750000D01*
X21642857Y-21678571D01*
X20000000Y-23178571D02*
X20000000Y-21678571D01*
D12*
X21190476Y-19452381D02*
X21666667Y-19452381D01*
X21714286Y-19928571D01*
X21666667Y-19880952D01*
X21571429Y-19833333D01*
X21333333Y-19833333D01*
X21238095Y-19880952D01*
X21190476Y-19928571D01*
X21142857Y-20023810D01*
X21142857Y-20261905D01*
X21190476Y-20357143D01*
X21238095Y-20404762D01*
X21333333Y-20452381D01*
X21571429Y-20452381D01*
X21666667Y-20404762D01*
X21714286Y-20357143D01*
X20857143Y-19452381D02*
X20523810Y-20452381D01*
X20190476Y-19452381D01*
X21761904Y-24500000D02*
X21857142Y-24452381D01*
X21999999Y-24452381D01*
X22142857Y-24500000D01*
X22238095Y-24595238D01*
X22285714Y-24690476D01*
X22333333Y-24880952D01*
X22333333Y-25023810D01*
X22285714Y-25214286D01*
X22238095Y-25309524D01*
X22142857Y-25404762D01*
X21999999Y-25452381D01*
X21904761Y-25452381D01*
X21761904Y-25404762D01*
X21714285Y-25357143D01*
X21714285Y-25023810D01*
X21904761Y-25023810D01*
X21285714Y-25452381D02*
X21285714Y-24452381D01*
X20714285Y-25452381D01*
X20714285Y-24452381D01*
X20238095Y-25452381D02*
X20238095Y-24452381D01*
X20000000Y-24452381D01*
X19857142Y-24500000D01*
X19761904Y-24595238D01*
X19714285Y-24690476D01*
X19666666Y-24880952D01*
X19666666Y-25023810D01*
X19714285Y-25214286D01*
X19761904Y-25309524D01*
X19857142Y-25404762D01*
X20000000Y-25452381D01*
X20238095Y-25452381D01*
M02*
