M48
METRIC,TZ
T1C0.400
%
G90
G05
T1
X20.003Y-21.997
X20.003Y-30.497
X20.003Y-38.997
X20.003Y-47.497
X20.003Y-55.997
X21.Y-25.
X21.Y-33.5
X21.Y-42.
X21.Y-50.5
X21.Y-59.
X22.Y-22.5
X22.Y-31.
X22.Y-39.5
X22.Y-48.
X22.Y-56.5
X22.075Y-23.5
X22.075Y-32.
X22.075Y-40.5
X22.075Y-49.
X22.075Y-57.5
X22.759Y-20.837
X22.759Y-29.337
X22.759Y-37.837
X22.759Y-46.337
X22.759Y-54.837
X28.503Y-21.997
X28.503Y-30.497
X28.503Y-38.997
X28.503Y-47.497
X28.503Y-55.997
X29.5Y-25.
X29.5Y-33.5
X29.5Y-42.
X29.5Y-50.5
X29.5Y-59.
X30.5Y-22.5
X30.5Y-31.
X30.5Y-39.5
X30.5Y-48.
X30.5Y-56.5
X30.575Y-23.5
X30.575Y-32.
X30.575Y-40.5
X30.575Y-49.
X30.575Y-57.5
X31.259Y-20.837
X31.259Y-29.337
X31.259Y-37.837
X31.259Y-46.337
X31.259Y-54.837
X37.003Y-21.997
X37.003Y-30.497
X37.003Y-38.997
X37.003Y-47.497
X37.003Y-55.997
X38.Y-25.
X38.Y-33.5
X38.Y-42.
X38.Y-50.5
X38.Y-59.
X39.Y-22.5
X39.Y-31.
X39.Y-39.5
X39.Y-48.
X39.Y-56.5
X39.075Y-23.5
X39.075Y-32.
X39.075Y-40.5
X39.075Y-49.
X39.075Y-57.5
X39.759Y-20.837
X39.759Y-29.337
X39.759Y-37.837
X39.759Y-46.337
X39.759Y-54.837
X45.503Y-21.997
X45.503Y-30.497
X45.503Y-38.997
X45.503Y-47.497
X45.503Y-55.997
X46.5Y-25.
X46.5Y-33.5
X46.5Y-42.
X46.5Y-50.5
X46.5Y-59.
X47.5Y-22.5
X47.5Y-31.
X47.5Y-39.5
X47.5Y-48.
X47.5Y-56.5
X47.575Y-23.5
X47.575Y-32.
X47.575Y-40.5
X47.575Y-49.
X47.575Y-57.5
X48.259Y-20.837
X48.259Y-29.337
X48.259Y-37.837
X48.259Y-46.337
X48.259Y-54.837
X54.003Y-21.997
X54.003Y-30.497
X54.003Y-38.997
X54.003Y-47.497
X54.003Y-55.997
X55.Y-25.
X55.Y-33.5
X55.Y-42.
X55.Y-50.5
X55.Y-59.
X56.Y-22.5
X56.Y-31.
X56.Y-39.5
X56.Y-48.
X56.Y-56.5
X56.075Y-23.5
X56.075Y-32.
X56.075Y-40.5
X56.075Y-49.
X56.075Y-57.5
X56.759Y-20.837
X56.759Y-29.337
X56.759Y-37.837
X56.759Y-46.337
X56.759Y-54.837
T0
M30
